# xmcd
#
# Track frame offsets:
#   150
#   17644
#   37801
#   50989
#   65070
#   79766
#   97360
#   114018
#   132127
#   148661
#   164551
#   183085
#   200185
#   216398
#   230671
#   246494
#   259098
#   272748
#
# Disc length: 3814 seconds
#
# Revision: 0
# Processed by: cddbd v1.5.2PL0 Copyright (c) Steve Scherf et al.
# Submitted via: uFREEDB ActiveX Control 1.5
#
DISCID=170ee412
DTITLE=Barretos 2007 - Barretos 2007 - Vol. 02
DYEAR=2007
DGENRE=Country
TTITLE0=Pega fogo cabaré
TTITLE1=Será que eu vou berrar
TTITLE2=Por favor reza pra nois
TTITLE3=Bola da vez
TTITLE4=Amor que fica
TTITLE5=Canto-Bebo-Choro
TTITLE6=Vou doar meu coração
TTITLE7=Onde é que ta meu amor
TTITLE8=Bate e bota no chão
TTITLE9=Lapada na Rachada
TTITLE10=Piriquita
TTITLE11=O verdadeiro
TTITLE12=Na saideira
TTITLE13=Arapuca
TTITLE14=Reza pra nois
TTITLE15=Ta guardando pra quem
TTITLE16=Sofro e choro
TTITLE17=Pinga com galinha
EXTD=
EXTT0=
EXTT1=
EXTT2=
EXTT3=
EXTT4=
EXTT5=
EXTT6=
EXTT7=
EXTT8=
EXTT9=
EXTT10=
EXTT11=
EXTT12=
EXTT13=
EXTT14=
EXTT15=
EXTT16=
EXTT17=
PLAYORDER=
